<svg xmlns="http://www.w3.org/2000/svg" viewBox="0 0 64 64"><defs><linearGradient id="cloak" x1="12" y1="5" x2="52" y2="61" gradientUnits="userSpaceOnUse"><stop stop-color="#9d8af0"/><stop offset=".56" stop-color="#6752c9"/><stop offset="1" stop-color="#3c2b82"/></linearGradient><linearGradient id="face" x1="22" y1="22" x2="45" y2="49"><stop stop-color="#f5e5ff"/><stop offset="1" stop-color="#c5a8f4"/></linearGradient></defs><rect width="64" height="64" rx="18" fill="#241c3b"/><path d="M21 25c-7-2-10-8-8-15 7 1 12 4 15 11m11 5c3-8 8-12 15-12 1 7-3 12-10 16" fill="#a392f0" stroke="#211733" stroke-width="2" stroke-linejoin="round"/><path d="M17 35c-3-12 5-22 16-22s20 9 17 22c5 9 1 17-6 21l-2 5H23l1-6c-8-4-11-12-7-20Z" fill="url(#cloak)" stroke="#211733" stroke-width="3" stroke-linejoin="round"/><path d="M40 17c8 3 12 10 9 17 4 6 2 12-3 16 1-12-2-24-9-31Z" fill="#a392f0" opacity=".68"/><path d="M21 34c0-9 5-15 12-15 8 0 13 6 13 15s-5 15-13 15c-7 0-12-6-12-15Z" fill="url(#face)" stroke="#33204e" stroke-width="2"/><path d="M26 32c2-3 5-3 7 0-1 4-5 4-7 0Zm9 0c2-3 5-3 7 0-1 4-5 4-7 0Z" fill="#533783"/><circle cx="30" cy="31" r="1.3" fill="#f5c86d"/><circle cx="39" cy="31" r="1.3" fill="#f5c86d"/><ellipse cx="24" cy="39" rx="2.5" ry="1.5" fill="#ee9fc8"/><ellipse cx="44" cy="39" rx="2.5" ry="1.5" fill="#ee9fc8"/><path d="M30 41c2 2 4 2 6 0" fill="none" stroke="#52347d" stroke-width="1.7" stroke-linecap="round"/><path d="M27 52h11l-1 5H27z" fill="#f2c870" stroke="#392654" stroke-width="1.5"/><path d="m52 6 1.5 3.5L57 11l-3.5 1.5L52 16l-1.5-3.5L47 11l3.5-1.5L52 6Z" fill="#ffd27c" stroke="#392654" stroke-width="1"/></svg>